PathFileType	4	(X/Y/Z)	RBDS002\RBDS002runT35.trc
DataRate	CameraRate	NumFrames	NumMarkers	Units	OrigDataRate	OrigDataStartFrame	OrigNumFrames
150.000000	150.000000	4	33	mm	150.000000	562	4500
Frame#	Time	L.ASIS			L.Heel.Bottom			L.Heel.Lateral			L.Heel.Top			L.Iliac.Crest			L.MT1			L.MT5			L.PSIS			L.Shank.Bottom.Lateral			L.Shank.Bottom.Medial			L.Shank.Top.Lateral			L.Shank.Top.Medial			L.Thigh.Bottom.Lateral			L.Thigh.Bottom.Medial			L.Thigh.Top.Lateral			L.Thigh.Top.Medial			R.ASIS			R.ASY			R.Heel.Bottom			R.Heel.Lateral			R.Heel.Top			R.Iliac.Crest			R.MT1			R.MT5			R.PSIS			R.Shank.Bottom.Lateral			R.Shank.Bottom.Medial			R.Shank.Top.Lateral			R.Shank.Top.Medial			R.Thigh.Bottom.Lateral			R.Thigh.Bottom.Medial			R.Thigh.Top.Lateral			R.Thigh.Top.Medial			
		X1	Y1	Z1	X2	Y2	Z2	X3	Y3	Z3	X4	Y4	Z4	X5	Y5	Z5	X6	Y6	Z6	X7	Y7	Z7	X8	Y8	Z8	X9	Y9	Z9	X10	Y10	Z10	X11	Y11	Z11	X12	Y12	Z12	X13	Y13	Z13	X14	Y14	Z14	X15	Y15	Z15	X16	Y16	Z16	X17	Y17	Z17	X18	Y18	Z18	X19	Y19	Z19	X20	Y20	Z20	X21	Y21	Z21	X22	Y22	Z22	X23	Y23	Z23	X24	Y24	Z24	X25	Y25	Z25	X26	Y26	Z26	X27	Y27	Z27	X28	Y28	Z28	X29	Y29	Z29	X30	Y30	Z30	X31	Y31	Z31	X32	Y32	Z32	X33	Y33	Z33	

563	3.746666666666667	2217.02734126053	971.1560877909692	903.7081268628635	1780.092677446541	71.77061244078423	996.8446304697792	1813.583261048317	74.98671369318909	950.5039847126318	1801.529521152159	118.3554212128685	993.6454438389737	2127.866296165197	1046.201796760102	849.5788134577097	2006.54018443835	51.9816854940383	1039.215730053686	1971.974355089692	40.02573980517265	926.4512862487761	2031.537034122397	1012.235778622651	973.9831316439406	1919.219565687703	169.7279759249425	935.7338240051645	1883.917527398333	199.909969630896	958.1239174727681	1960.428219313987	233.7445653598356	908.077620530501	1927.559576507925	267.8493934709271	933.1130516320588	2130.374991135931	532.9758112319668	865.3496906780789	2073.41680180043	528.8898450600808	912.0614221856063	2104.346349199877	639.3292744821704	848.4885203033491	2053.338365224376	636.4399235201167	894.835294234206	2214.844062992161	956.9724397643432	1120.179748136202	2030.50945664762	280.9934805266379	1079.579517018471	1902.037224024209	424.5159852306949	1042.450982774066	1921.635070413936	415.263773686686	1085.229431557503	1952.616727265924	433.407125894948	1043.833070573868	2126.855646496278	1038.801375184941	1167.652700651005	2009.889953738605	215.0637677281594	1043.888398965464	1982.455131098928	256.6215335194739	1145.495877945792	2033.327773695763	1003.019535514325	1057.560040169256	2057.074328303574	421.3738189807247	1117.22726329985	2047.843128552466	458.9597931669805	1078.650015394242	2126.542264822087	459.8766350582435	1135.279406645317	2117.219088965493	495.0460906459832	1095.48231929614	2319.680148545145	582.582828821552	1164.598724707936	2282.270834037367	560.881318038169	1107.297802746069	2241.510627631192	660.6378985788685	1181.91156713341	2202.708441010136	633.7767029767667	1130.597859395454	
564	3.753333333333333	2217.838985503246	973.6360973978542	904.4682575082329	1757.866182157898	77.98487587168287	996.3411718592386	1791.466486517381	79.84287927843535	949.9693166831235	1780.37596026952	124.0255972897121	992.610785997418	2130.919484196445	1050.6129983691	849.806912810642	1983.28929316415	51.9195050684074	1039.649695902712	1948.345884110708	40.49881205655138	926.8086235090655	2032.194692723929	1016.381256084759	971.9095393286536	1898.201045541008	174.2801407514689	935.384230807555	1863.097060539688	204.6178932632547	957.9174560639191	1939.940498545703	238.1384639354537	908.0888497717847	1907.174090143498	272.3573202427747	933.137872258248	2116.572194589369	536.4237750361445	866.456062554063	2058.627523938465	534.4969834954628	912.0937984332134	2094.728753948928	643.5889804772664	848.981017049871	2042.789957187316	642.6913982329417	894.2964954312648	2213.942635058839	962.3863092469014	1120.449003583404	2055.333233879918	270.4338380519308	1080.194422354457	1916.924572331245	404.9963043183063	1044.491587209925	1937.363532368823	396.9218906717315	1087.123237778584	1966.818293983255	417.4803650648502	1045.576225436171	2124.515349129052	1043.697330725584	1167.100870701555	2039.088237118109	203.4541515023254	1044.530938735591	2009.35375717509	242.5949853664007	1146.222394412036	2032.743508398049	1007.929025040891	1055.944426171034	2072.575942602374	412.4657894468965	1117.980176304177	2060.562046401658	449.2899641822793	1079.467209226666	2139.442850392184	455.5210688132727	1135.512776638823	2127.440889946603	490.0302395908367	1095.828265636659	2326.924167264082	593.3426998769088	1163.242768950325	2289.376697374312	570.3165521313315	1106.358722876267	2246.726342802729	669.3947221613694	1181.462248046151	2208.242221381116	641.807614873976	1130.327189780038	
565	3.76	2218.97038269973	976.5836238264782	905.3486175652667	1736.349218824858	85.31493552142537	995.7495849797357	1769.979709377626	85.56667600733405	949.3378940582227	1760.138923028044	130.6287566803143	991.4201044374869	2134.898409456773	1055.381891958737	850.2439475039309	1960.27149975038	51.76947408867468	1040.076366835988	1924.912711345376	41.01911387130752	927.1022886803999	2033.341344463224	1020.856584493901	969.6614302672673	1877.8393608689	179.5834367100962	934.7821379056719	1842.956783838648	209.9928976173829	957.574025223075	1919.987968605607	243.3745469012264	907.8705013093424	1887.321803177451	277.6097693661724	933.0298622741586	2103.046040629372	540.8210157552969	867.6262182449074	2044.361659343328	541.2554969560334	912.3507761252005	2085.521422840188	648.6248045358469	849.5027811862146	2032.832896724774	649.8947118868798	893.9022880778045	2213.450427104838	968.3132374729893	1120.596175759377	2080.939226927017	260.0028618551859	1080.788121873964	1933.102781857486	384.7578344733279	1046.248340489635	1954.247209948743	377.9622250147681	1088.751682203255	1982.052380691613	400.8089868339187	1047.137329789118	2122.861147121136	1049.045617248305	1166.582454465491	2069.252904247557	192.2408069700537	1045.150596260634	2037.208619726458	228.8391903935354	1146.850859424738	2032.450471515161	1013.248951561067	1054.36970077344	2088.520935759509	403.1932600059466	1118.573231566437	2073.711036319772	438.9824390607686	1080.086779757804	2152.361359783366	450.7886668182591	1135.573404376489	2137.685709315616	484.3564464976636	1095.95796342599	2333.303865989291	604.1675255115748	1161.833514018444	2295.585302352976	580.1358505098849	1105.268918643168	2251.525019075444	678.4770418026355	1181.085667244933	2213.271612148606	650.4359179579932	1130.031143070124	
566	3.766666666666667	2220.38901002504	979.9360950946909	906.3662063256988	1715.74254692099	93.78696717731499	995.1060018072546	1749.283429100891	92.19072500116562	948.6492203968429	1741.024070076052	138.1517837103068	990.1247001046671	2139.718066556744	1060.408685406491	850.8609670779202	1937.539226446164	51.52682912001083	1040.478633391936	1901.720980616593	41.59884470769288	927.3241366586878	2034.96319830029	1025.620106932034	967.2706548338756	1858.263055479329	185.5778364198691	933.9256067981352	1823.651118079526	215.9665957382452	957.1258156399873	1900.678636853972	249.3909660408453	907.4065481150495	1868.142982866632	283.5430652453351	932.8076097919758	2089.815834623511	546.1193039573709	868.7257685364369	2030.676212639829	549.0692697427255	912.7432576884624	2076.724995771262	654.3941441980245	849.9988718886319	2023.519097441399	657.9628611263161	893.6554850883173	2213.345503751765	974.7299100302437	1120.668970573089	2107.332426217313	249.844043895306	1081.362465537506	1950.699869974093	363.9976986957123	1047.690623637556	1972.403401387355	358.5688216959701	1090.08353341163	1998.448075938621	383.5488305162739	1048.472167226416	2121.811430711716	1054.814694225207	1166.131034677648	2100.361614634189	181.5834749897449	1045.754131106907	2066.017653940059	215.5193259817791	1147.39304456537	2032.433427487847	1018.918336626408	1052.854833982051	2104.977318594418	393.6136645227068	1118.991457101291	2087.413767057673	428.1051148219165	1080.491196313281	2165.3645502202	445.6647599842717	1135.456492078366	2148.080724420891	478.0151626807526	1095.864573992964	2338.845769738876	614.9420673515849	1160.437115260666	2300.920720647861	590.191051672822	1104.114631692105	2255.913225585054	687.7852662349947	1180.795827074557	2217.788454117713	659.5074704970216	1129.744898241363	
